<?xml version="1.0" encoding="iso-8859-1"?>
<!-- Generator: Adobe Illustrator 19.0.0, SVG Export Plug-In . SVG Version: 6.00 Build 0)  -->
<svg version="1.1" id="Capa_1" xmlns="http://www.w3.org/2000/svg" xmlns:xlink="http://www.w3.org/1999/xlink" x="0px" y="0px"
	 viewBox="0 0 512.001 512.001" style="enable-background:new 0 0 512.001 512.001;" xml:space="preserve">
<path style="fill:#1CEED2;" d="M407.135,237.091c-2.399,6.6-8.098,25.197-11.398,30.896c-14.097-9.299-31.495-14.998-49.791-14.998
	c-18.597,0-35.694,5.699-50.091,15.298c-2.1-3.899-9.599-26.396-11.098-31.196c-9.599-29.094,11.997-59.09,42.893-59.09h36.593
	C395.138,178.001,416.735,207.997,407.135,237.091z"/>
<path style="fill:#17CEB4;" d="M407.135,237.091c-2.399,6.6-8.098,25.197-11.398,30.896c-14.097-9.299-31.495-14.998-49.791-14.998
	v-74.988h18.297C395.138,178.001,416.735,207.997,407.135,237.091z"/>
<circle style="fill:#FCBF29;" cx="466.927" cy="252.991" r="14.998"/>
<path style="fill:#FEDB41;" d="M450.93,342.976c0,11.999-1.1,23.695-4.999,35.094c-2.1,5.999-8.799,9.899-15.097,9.899
	c-1.8,0-3.3-0.3-5.1-0.901c-7.797-2.699-11.697-11.396-8.999-19.196c2.701-7.799,4.199-16.198,4.199-24.897
	c0-41.394-33.595-74.988-74.988-74.988s-74.988,33.595-74.988,74.988c0,8.698,1.5,17.097,4.199,24.897
	c2.699,7.799-1.201,16.497-8.999,19.196c-7.799,2.701-16.498-1.199-19.197-8.999c-3.899-11.398-5.999-23.095-5.999-35.094
	c0-57.891,47.093-104.984,104.984-104.984S450.93,285.085,450.93,342.976z"/>
<path style="fill:#FCBF29;" d="M450.93,342.976c0,11.999-1.1,23.695-4.999,35.094c-2.1,5.999-8.799,9.899-15.097,9.899
	c-1.8,0-3.3-0.3-5.1-0.901c-7.797-2.699-11.697-11.396-8.999-19.196c2.701-7.799,4.199-16.198,4.199-24.897
	c0-41.394-33.595-74.988-74.988-74.988v-29.995C403.837,237.992,450.93,285.085,450.93,342.976z"/>
<circle style="fill:#FEDB41;" cx="134.979" cy="43.024" r="14.998"/>
<path style="fill:#FCBF29;" d="M437.035,176.61L437.035,176.61c-5.683,0-10.882-3.207-13.416-8.29l-17.751-35.531l-35.531-17.751
	c-11.023-5.495-11.023-21.337,0-26.832l35.531-17.751l17.751-35.531c5.067-10.164,21.735-10.164,26.832,0l17.766,35.531
	l35.516,17.751c11.023,5.527,11.023,21.305,0,26.832l-35.516,17.751l-17.766,35.531C447.902,173.402,442.717,176.61,437.035,176.61z
	"/>
<path style="fill:#FEDB41;" d="M74.988,88.016H59.991V73.018c0-8.29-6.708-14.998-14.998-14.998s-14.998,6.708-14.998,14.998v14.998
	H14.998C6.708,88.016,0,94.724,0,103.013s6.708,14.998,14.998,14.998h14.998v14.998c0,8.29,6.708,14.998,14.998,14.998
	s14.998-6.708,14.998-14.998v-14.998h14.998c8.29,0,14.998-6.708,14.998-14.998S83.278,88.016,74.988,88.016z"/>
<path style="fill:#FC1A40;" d="M496.922,357.973H105.983c-8.4,0-14.998,6.598-14.998,14.998v63.99
	c0,41.394,33.595,74.988,74.988,74.988h270.958c41.394,0,74.988-33.595,74.988-74.988v-63.99
	C511.92,364.571,505.322,357.973,496.922,357.973z"/>
<path style="fill:#FF3E75;" d="M354.046,52.921l-8.1-6.299l-39.594-30.996C290.754,3.329,270.958-1.77,251.162,0.628
	c-19.798,2.701-37.494,12.599-49.793,28.496L36.094,243.09c-25.495,32.696-19.496,79.789,13.198,104.984l47.393,36.895
	c6.598,5.098,16.196,3.899,20.997-2.701L345.946,87.415l10.497-13.497C361.544,67.319,360.644,58.02,354.046,52.921z"/>
<path style="fill:#C60034;" d="M511.92,372.971v63.99c0,41.394-33.595,74.988-74.988,74.988h-90.986V357.973h150.976
	C505.322,357.973,511.92,364.571,511.92,372.971z"/>
<path style="fill:#FC1A40;" d="M356.443,73.919l-10.497,13.496V46.621l8.1,6.3C360.644,58.02,361.544,67.319,356.443,73.919z"/>
<g>
</g>
<g>
</g>
<g>
</g>
<g>
</g>
<g>
</g>
<g>
</g>
<g>
</g>
<g>
</g>
<g>
</g>
<g>
</g>
<g>
</g>
<g>
</g>
<g>
</g>
<g>
</g>
<g>
</g>
</svg>
