<?xml version="1.0" encoding="iso-8859-1"?>
<!-- Generator: Adobe Illustrator 19.0.0, SVG Export Plug-In . SVG Version: 6.00 Build 0)  -->
<svg version="1.1" id="Capa_1" xmlns="http://www.w3.org/2000/svg" xmlns:xlink="http://www.w3.org/1999/xlink" x="0px" y="0px"
	 viewBox="0 0 480 480" style="enable-background:new 0 0 480 480;" xml:space="preserve">
<path style="fill:#FFB398;" d="M296,61.255l-56.737,57.954L201.94,79.196c-18.745-18.745-49.137-18.745-67.882,0L24,189.255h80
	l52.687-52.687c6.248-6.249,16.379-6.249,22.627,0l20.368,23.071L168,192h128l64-66.745L296,61.255z"/>
<g>
	
		<rect x="215.988" y="169.919" transform="matrix(-0.7071 0.7071 -0.7071 -0.7071 510.5276 151.0116)" style="fill:#FE946F;" width="16" height="22.64"/>
	<path style="fill:#FE946F;" d="M202.344,202.914l-24-24c-3.125-3.125-3.125-8.188,0-11.313l32-32l11.313,11.313l-26.344,26.344
		l18.344,18.344L202.344,202.914z"/>
</g>
<path style="fill:#FFD422;" d="M296,61.255l64,64l8-8c17.673-17.673,17.673-46.327,0-64l0,0c-17.673-17.673-46.327-17.673-64,0
	L296,61.255z"/>
<g>
	<path style="fill:#FE946F;" d="M304,149.258h-24v-16h16v-24h16v32C312,145.68,308.422,149.258,304,149.258z"/>
	<path style="fill:#FE946F;" d="M296,192l160-2.745c8.837,0,16-7.163,16-16v-32h-32v-24h-8c-13.255,0-24,10.745-24,24v0h-64L296,192
		z"/>
</g>
<path style="fill:#90C9F5;" d="M480,248c-26.693,0-26.693-32-53.386-32c-26.693,0-26.693,32-53.386,32
	c-26.674,0-26.674-32-53.349-32c-26.651,0-26.651,32-53.303,32c-26.666,0-26.666-32-53.332-32c-26.659,0-26.659,32-53.318,32
	c-26.658,0-26.658-32-53.317-32c-26.658,0-26.658,32-53.317,32C26.647,248,26.647,216,0,216v232h480V248z"/>
<path style="fill:#5AAAE7;" d="M480,296c-26.693,0-26.693-32-53.386-32c-26.693,0-26.693,32-53.386,32
	c-26.674,0-26.674-32-53.349-32c-26.651,0-26.651,32-53.303,32c-26.666,0-26.666-32-53.332-32c-26.659,0-26.659,32-53.318,32
	c-26.658,0-26.658-32-53.317-32c-26.658,0-26.658,32-53.317,32C26.647,296,26.647,264,0,264v184h480V296z"/>
<path style="fill:#1E81CE;" d="M480,344c-26.693,0-26.693-32-53.386-32c-26.693,0-26.693,32-53.386,32
	c-26.674,0-26.674-32-53.349-32c-26.651,0-26.651,32-53.303,32c-26.666,0-26.666-32-53.332-32c-26.659,0-26.659,32-53.318,32
	c-26.658,0-26.658-32-53.317-32c-26.658,0-26.658,32-53.317,32C26.647,344,26.647,312,0,312v136h480V344z"/>
<rect x="215.988" y="169.919" transform="matrix(-0.7071 0.7071 -0.7071 -0.7071 510.5276 151.0116)" width="16" height="22.64"/>
<path d="M200,145.945l-15.031-15.031c-9.359-9.359-24.578-9.359-33.938,0l-52.688,52.688l11.313,11.313l52.688-52.688
	c3.125-3.125,8.188-3.125,11.313,0l15.031,15.031l-10.344,10.344c-3.125,3.125-3.125,8.188,0,11.313l24,24l11.313-11.313
	l-18.344-18.344l26.344-26.344l-11.313-11.313L200,145.945z"/>
<path d="M312,141.258v-32h-16v24h-16v16h24C308.422,149.258,312,145.68,312,141.258z"/>
<path d="M472,133.258h-24v-16c0-4.422-3.578-8-8-8h-8c-14.883,0-27.43,10.211-30.984,24h-37.703l2.344-2.344l8-8
	c20.758-20.766,20.758-54.555,0-75.313C363.602,37.539,350.227,32,336,32s-27.602,5.539-37.656,15.602l-8,8L240,105.945
	l-32.406-32.406c-21.82-21.82-57.359-21.836-79.195,0L18.344,183.602l11.313,11.313L139.711,84.852
	c15.594-15.594,40.977-15.594,56.57,0l54.063,54.063l11.313-11.313l-10.344-10.344L296,72.57l52.688,52.688l-42.344,42.344
	l11.313,11.313l29.656-29.656H408c4.422,0,8-3.578,8-8c0-8.82,7.18-16,16-16v8h-8v16h40v24c0,4.414-3.586,8-8,8H352v16h104
	c13.234,0,24-10.766,24-24v-32C480,136.836,476.422,133.258,472,133.258z M309.656,58.914C316.695,51.875,326.047,48,336,48
	s19.305,3.875,26.344,10.914c14.523,14.523,14.523,38.156,0,52.688L360,113.945l-52.688-52.688L309.656,58.914z"/>
<path d="M459.445,226.875C452.438,218.469,443.703,208,426.617,208c-17.094,0-25.82,10.469-32.836,18.875
	C386.789,235.258,382.383,240,373.227,240c-9.141,0-13.539-4.742-20.523-13.125c-7.016-8.406-15.734-18.875-32.82-18.875
	c-17.078,0-25.797,10.469-32.805,18.883c-6.977,8.375-11.367,13.117-20.5,13.117c-9.141,0-13.531-4.742-20.516-13.117
	c-7.016-8.414-15.734-18.883-32.82-18.883c-17.078,0-25.797,10.469-32.805,18.883C173.461,235.258,169.063,240,159.93,240
	c-9.141,0-13.539-4.742-20.516-13.125C132.406,218.469,123.688,208,106.609,208s-25.797,10.469-32.805,18.883
	C66.828,235.258,62.43,240,53.297,240s-13.523-4.742-20.5-13.117C25.789,218.469,17.07,208,0,208v16
	c9.133,0,13.523,4.742,20.5,13.117C27.508,245.531,36.227,256,53.297,256c17.078,0,25.797-10.469,32.805-18.883
	C93.078,228.742,97.477,224,106.609,224s13.531,4.742,20.508,13.117C134.125,245.531,142.852,256,159.93,256
	s25.797-10.469,32.805-18.883c6.977-8.375,11.375-13.117,20.508-13.117c9.148,0,13.539,4.742,20.523,13.125
	C240.781,245.531,249.5,256,266.578,256c17.07,0,25.789-10.469,32.797-18.875C306.352,228.742,310.75,224,319.883,224
	c9.141,0,13.539,4.742,20.523,13.125c7.016,8.406,15.734,18.875,32.82,18.875c17.094,0,25.82-10.469,32.836-18.875
	c6.992-8.383,11.398-13.125,20.555-13.125c9.148,0,13.555,4.742,20.547,13.125C454.18,245.531,462.906,256,480,256v-16
	C470.844,240,466.438,235.258,459.445,226.875z"/>
<path d="M459.445,274.875C452.438,266.469,443.703,256,426.617,256c-17.094,0-25.82,10.469-32.836,18.875
	C386.789,283.258,382.383,288,373.227,288c-9.141,0-13.539-4.742-20.523-13.125c-7.016-8.406-15.734-18.875-32.82-18.875
	c-17.078,0-25.797,10.469-32.805,18.883c-6.977,8.375-11.367,13.117-20.5,13.117c-9.141,0-13.531-4.742-20.516-13.117
	c-7.016-8.414-15.734-18.883-32.82-18.883c-17.078,0-25.797,10.469-32.805,18.883C173.461,283.258,169.063,288,159.93,288
	c-9.141,0-13.539-4.742-20.516-13.125C132.406,266.469,123.688,256,106.609,256s-25.797,10.469-32.805,18.883
	C66.828,283.258,62.43,288,53.297,288s-13.523-4.742-20.5-13.117C25.789,266.469,17.07,256,0,256v16
	c9.133,0,13.523,4.742,20.5,13.117C27.508,293.531,36.227,304,53.297,304c17.078,0,25.797-10.469,32.805-18.883
	C93.078,276.742,97.477,272,106.609,272s13.531,4.742,20.508,13.117C134.125,293.531,142.852,304,159.93,304
	s25.797-10.469,32.805-18.883c6.977-8.375,11.375-13.117,20.508-13.117c9.148,0,13.539,4.742,20.523,13.125
	C240.781,293.531,249.5,304,266.578,304c17.07,0,25.789-10.469,32.797-18.875C306.352,276.742,310.75,272,319.883,272
	c9.141,0,13.539,4.742,20.523,13.125c7.016,8.406,15.734,18.875,32.82,18.875c17.094,0,25.82-10.469,32.836-18.875
	c6.992-8.383,11.398-13.125,20.555-13.125c9.148,0,13.555,4.742,20.547,13.125C454.18,293.531,462.906,304,480,304v-16
	C470.844,288,466.438,283.258,459.445,274.875z"/>
<path d="M459.445,322.875C452.438,314.469,443.703,304,426.617,304c-17.094,0-25.82,10.469-32.836,18.875
	C386.789,331.258,382.383,336,373.227,336c-9.141,0-13.539-4.742-20.523-13.125c-7.016-8.406-15.734-18.875-32.82-18.875
	c-17.078,0-25.797,10.469-32.805,18.883c-6.977,8.375-11.367,13.117-20.5,13.117c-9.141,0-13.531-4.742-20.516-13.117
	c-7.016-8.414-15.734-18.883-32.82-18.883c-17.078,0-25.797,10.469-32.805,18.883C173.461,331.258,169.063,336,159.93,336
	c-9.141,0-13.539-4.742-20.516-13.125C132.406,314.469,123.688,304,106.609,304s-25.797,10.469-32.805,18.883
	C66.828,331.258,62.43,336,53.297,336s-13.523-4.742-20.5-13.117C25.789,314.469,17.07,304,0,304v16
	c9.133,0,13.523,4.742,20.5,13.117C27.508,341.531,36.227,352,53.297,352c17.078,0,25.797-10.469,32.805-18.883
	C93.078,324.742,97.477,320,106.609,320s13.531,4.742,20.508,13.117C134.125,341.531,142.852,352,159.93,352
	s25.797-10.469,32.805-18.883c6.977-8.375,11.375-13.117,20.508-13.117c9.148,0,13.539,4.742,20.523,13.125
	C240.781,341.531,249.5,352,266.578,352c17.07,0,25.789-10.469,32.797-18.875C306.352,324.742,310.75,320,319.883,320
	c9.141,0,13.539,4.742,20.523,13.125c7.016,8.406,15.734,18.875,32.82,18.875c17.094,0,25.82-10.469,32.836-18.875
	c6.992-8.383,11.398-13.125,20.555-13.125c9.148,0,13.555,4.742,20.547,13.125C454.18,341.531,462.906,352,480,352v-16
	C470.844,336,466.438,331.258,459.445,322.875z"/>
<g>
</g>
<g>
</g>
<g>
</g>
<g>
</g>
<g>
</g>
<g>
</g>
<g>
</g>
<g>
</g>
<g>
</g>
<g>
</g>
<g>
</g>
<g>
</g>
<g>
</g>
<g>
</g>
<g>
</g>
</svg>
