<?xml version="1.0" encoding="iso-8859-1"?>
<!-- Generator: Adobe Illustrator 19.0.0, SVG Export Plug-In . SVG Version: 6.00 Build 0)  -->
<svg version="1.1" id="Capa_1" xmlns="http://www.w3.org/2000/svg" xmlns:xlink="http://www.w3.org/1999/xlink" x="0px" y="0px"
	 viewBox="0 0 512 512" style="enable-background:new 0 0 512 512;" xml:space="preserve">
<rect x="42.667" y="401.067" style="fill:#E7ECED;" width="426.667" height="102.4"/>
<rect x="25.6" y="366.933" style="fill:#AFB6BB;" width="460.8" height="34.133"/>
<rect x="238.933" y="332.8" style="fill:#7383BF;" width="34.133" height="34.133"/>
<rect x="153.6" y="196.267" style="fill:#AFB6BB;" width="204.8" height="34.133"/>
<path style="fill:#E7ECED;" d="M273.067,298.667h-34.133c-37.7,0-68.267-30.566-68.267-68.267l0,0h170.667l0,0
	C341.333,268.1,310.767,298.667,273.067,298.667z"/>
<g>
	<path style="fill:#4D007E;" d="M469.333,512H42.667c-4.71,0-8.533-3.814-8.533-8.533v-102.4c0-4.719,3.823-8.533,8.533-8.533
		h426.667c4.71,0,8.533,3.814,8.533,8.533v102.4C477.867,508.186,474.044,512,469.333,512z M51.2,494.933h409.6V409.6H51.2V494.933z
		"/>
	<path style="fill:#4D007E;" d="M486.4,409.6H25.6c-4.71,0-8.533-3.814-8.533-8.533v-34.133c0-4.719,3.823-8.533,8.533-8.533h460.8
		c4.71,0,8.533,3.814,8.533,8.533v34.133C494.933,405.786,491.11,409.6,486.4,409.6z M34.133,392.533h443.733v-17.067H34.133
		V392.533z"/>
	<path style="fill:#4D007E;" d="M273.067,375.467h-34.133c-4.71,0-8.533-3.814-8.533-8.533V332.8c0-4.719,3.823-8.533,8.533-8.533
		h34.133c4.71,0,8.533,3.814,8.533,8.533v34.133C281.6,371.652,277.777,375.467,273.067,375.467z M247.467,358.4h17.067v-17.067
		h-17.067V358.4z"/>
	<path style="fill:#4D007E;" d="M358.4,238.933H153.6c-4.71,0-8.533-3.814-8.533-8.533v-34.133c0-4.719,3.823-8.533,8.533-8.533
		h204.8c4.71,0,8.533,3.814,8.533,8.533V230.4C366.933,235.119,363.11,238.933,358.4,238.933z M162.133,221.867h187.733V204.8
		H162.133V221.867z"/>
	<path style="fill:#4D007E;" d="M256,204.8c-4.71,0-8.533-3.814-8.533-8.533v-153.6C247.467,19.14,266.607,0,290.133,0
		C313.66,0,332.8,19.14,332.8,42.667v51.2c0,4.719-3.823,8.533-8.533,8.533s-8.533-3.814-8.533-8.533v-51.2
		c0-14.114-11.486-25.6-25.6-25.6c-14.114,0-25.6,11.486-25.6,25.6v153.6C264.533,200.986,260.71,204.8,256,204.8z"/>
	<path style="fill:#4D007E;" d="M324.267,162.133c-4.71,0-8.533-3.814-8.533-8.533c0-14.114-11.486-25.6-25.6-25.6
		c-14.114,0-25.6,11.486-25.6,25.6c0,4.719-3.823,8.533-8.533,8.533c-4.71,0-8.533-3.814-8.533-8.533
		c0-23.526,19.14-42.667,42.667-42.667c23.526,0,42.667,19.14,42.667,42.667C332.8,158.319,328.977,162.133,324.267,162.133z"/>
	<path style="fill:#4D007E;" d="M503.467,512H8.533C3.823,512,0,508.186,0,503.467c0-4.719,3.823-8.533,8.533-8.533h494.933
		c4.71,0,8.533,3.814,8.533,8.533C512,508.186,508.177,512,503.467,512z"/>
	<path style="fill:#4D007E;" d="M187.733,136.533c-4.71,0-8.533-3.814-8.533-8.533V76.8c0-23.526,19.14-42.667,42.667-42.667
		s42.667,19.14,42.667,42.667c0,4.719-3.823,8.533-8.533,8.533c-4.71,0-8.533-3.814-8.533-8.533c0-14.114-11.486-25.6-25.6-25.6
		c-14.114,0-25.6,11.486-25.6,25.6V128C196.267,132.719,192.444,136.533,187.733,136.533z"/>
	<rect x="247.467" y="298.667" style="fill:#4D007E;" width="17.067" height="34.133"/>
	<path style="fill:#4D007E;" d="M273.067,307.2h-34.133c-42.351,0-76.8-34.449-76.8-76.8c0-4.719,3.823-8.533,8.533-8.533h170.667
		c4.71,0,8.533,3.814,8.533,8.533C349.867,272.751,315.418,307.2,273.067,307.2z M179.806,238.933
		c4.156,28.911,29.082,51.2,59.127,51.2h34.133c30.037,0,54.972-22.289,59.127-51.2H179.806z"/>
	<path style="fill:#4D007E;" d="M153.6,204.8c-4.71,0-8.533-3.814-8.533-8.533c0-14.114-11.486-25.6-25.6-25.6
		s-25.6,11.486-25.6,25.6c0,4.719-3.823,8.533-8.533,8.533c-4.71,0-8.533-3.814-8.533-8.533c0-23.526,19.14-42.667,42.667-42.667
		s42.667,19.14,42.667,42.667C162.133,200.986,158.31,204.8,153.6,204.8z"/>
	<path style="fill:#4D007E;" d="M85.333,256c-4.71,0-8.533-3.814-8.533-8.533V230.4c0-4.719,3.823-8.533,8.533-8.533
		c4.71,0,8.533,3.814,8.533,8.533v17.067C93.867,252.186,90.044,256,85.333,256z"/>
	<path style="fill:#4D007E;" d="M85.333,307.2c-4.71,0-8.533-3.814-8.533-8.533V281.6c0-4.719,3.823-8.533,8.533-8.533
		c4.71,0,8.533,3.814,8.533,8.533v17.067C93.867,303.386,90.044,307.2,85.333,307.2z"/>
	<path style="fill:#4D007E;" d="M426.667,204.8c-4.71,0-8.533-3.814-8.533-8.533c0-14.114-11.486-25.6-25.6-25.6
		s-25.6,11.486-25.6,25.6c0,4.719-3.823,8.533-8.533,8.533s-8.533-3.814-8.533-8.533c0-23.526,19.14-42.667,42.667-42.667
		s42.667,19.14,42.667,42.667C435.2,200.986,431.377,204.8,426.667,204.8z"/>
	<path style="fill:#4D007E;" d="M426.667,256c-4.71,0-8.533-3.814-8.533-8.533V230.4c0-4.719,3.823-8.533,8.533-8.533
		s8.533,3.814,8.533,8.533v17.067C435.2,252.186,431.377,256,426.667,256z"/>
	<path style="fill:#4D007E;" d="M426.667,307.2c-4.71,0-8.533-3.814-8.533-8.533V281.6c0-4.719,3.823-8.533,8.533-8.533
		s8.533,3.814,8.533,8.533v17.067C435.2,303.386,431.377,307.2,426.667,307.2z"/>
	<path style="fill:#4D007E;" d="M384,477.867H42.667c-4.71,0-8.533-3.814-8.533-8.533c0-4.719,3.823-8.533,8.533-8.533H384
		c4.71,0,8.533,3.814,8.533,8.533C392.533,474.052,388.71,477.867,384,477.867z"/>
	<path style="fill:#4D007E;" d="M469.333,477.867h-51.2c-4.71,0-8.533-3.814-8.533-8.533c0-4.719,3.823-8.533,8.533-8.533h51.2
		c4.71,0,8.533,3.814,8.533,8.533C477.867,474.052,474.044,477.867,469.333,477.867z"/>
</g>
<g>
</g>
<g>
</g>
<g>
</g>
<g>
</g>
<g>
</g>
<g>
</g>
<g>
</g>
<g>
</g>
<g>
</g>
<g>
</g>
<g>
</g>
<g>
</g>
<g>
</g>
<g>
</g>
<g>
</g>
</svg>
