<?xml version="1.0" encoding="iso-8859-1"?>
<!-- Generator: Adobe Illustrator 19.0.0, SVG Export Plug-In . SVG Version: 6.00 Build 0)  -->
<svg version="1.1" id="Capa_1" xmlns="http://www.w3.org/2000/svg" xmlns:xlink="http://www.w3.org/1999/xlink" x="0px" y="0px"
	 viewBox="0 0 512 512" style="enable-background:new 0 0 512 512;" xml:space="preserve">
<g>
	<rect x="179.199" y="460.799" style="fill:#E7ECED;" width="34.134" height="42.667"/>
	<rect x="298.667" y="460.816" style="fill:#E7ECED;" width="34.134" height="42.667"/>
</g>
<path style="fill:#DD352E;" d="M162.132,418.132v51.201H230.4v-47.89C207.624,420.965,184.865,419.856,162.132,418.132z"/>
<path style="fill:#366DB6;" d="M281.6,421.434v47.89h68.268v-51.201C327.135,419.856,304.376,420.965,281.6,421.434z"/>
<path style="fill:#E7ECED;" d="M110.931,17.024L110.931,17.024c96.377-11.341,193.761-11.341,290.138,0l0,0V401.09l0,0
	c-96.377,11.341-193.761,11.341-290.138,0l0,0V17.024z"/>
<path style="fill:#AFB6BB;" d="M110.931,315.73v110.961l0,0c96.377,11.341,193.761,11.341,290.138,0V315.73H110.931z"/>
<circle style="fill:#FFFFFF;" cx="256" cy="375.464" r="25.6"/>
<path style="fill:#366DB6;" d="M298.667,145.026h-85.335c-9.429,0-17.067-7.637-17.067-17.067V93.826
	c0-9.429,7.637-17.067,17.067-17.067h85.335c9.429,0,17.067,7.637,17.067,17.067v34.134
	C315.734,137.389,308.097,145.026,298.667,145.026z"/>
<g>
	<path style="fill:#4D007E;" d="M256,443.715c-48.803,0-97.606-2.85-146.068-8.551c-4.301-0.503-7.535-4.147-7.535-8.474V17.024
		c0-4.326,3.234-7.97,7.535-8.474c96.915-11.401,195.212-11.401,292.126,0c4.309,0.503,7.544,4.147,7.544,8.474v409.667
		c0,4.326-3.234,7.97-7.535,8.474C353.606,440.865,304.803,443.715,256,443.715z M119.464,419.079
		c90.643,10.104,182.429,10.104,273.071,0V24.636c-90.643-10.104-182.429-10.104-273.071,0V419.079z"/>
	<path style="fill:#4D007E;" d="M256,409.598c-18.825,0-34.134-15.309-34.134-34.134s15.309-34.134,34.134-34.134
		s34.134,15.309,34.134,34.134S274.825,409.598,256,409.598z M256,358.397c-9.412,0-17.067,7.655-17.067,17.067
		c0,9.412,7.655,17.067,17.067,17.067c9.412,0,17.067-7.655,17.067-17.067C273.067,366.052,265.412,358.397,256,358.397z"/>
	<path style="fill:#4D007E;" d="M298.667,153.56h-85.335c-14.114,0-25.6-11.486-25.6-25.6V93.826c0-14.114,11.486-25.6,25.6-25.6
		h85.335c14.114,0,25.6,11.486,25.6,25.6v34.134C324.268,142.074,312.782,153.56,298.667,153.56z M213.333,85.292
		c-4.702,0-8.533,3.832-8.533,8.533v34.134c0,4.702,3.832,8.533,8.533,8.533h85.335c4.702,0,8.533-3.832,8.533-8.533V93.826
		c0-4.702-3.832-8.533-8.533-8.533H213.333z"/>
	<path style="fill:#4D007E;" d="M255.991,153.56c-1.775,0-3.576-0.555-5.112-1.707c-3.772-2.825-4.531-8.175-1.707-11.947
		l25.6-34.134c2.825-3.763,8.175-4.54,11.947-1.707c3.772,2.825,4.531,8.175,1.707,11.947l-25.6,34.134
		C261.154,152.382,258.586,153.56,255.991,153.56z"/>
	<path style="fill:#4D007E;" d="M213.333,512h-34.134c-4.71,0-8.533-3.823-8.533-8.533v-34.134c0-4.71,3.823-8.533,8.533-8.533
		h34.134c4.71,0,8.533,3.823,8.533,8.533v34.134C221.866,508.177,218.043,512,213.333,512z M187.732,494.933h17.067v-17.067h-17.067
		V494.933z"/>
	<path style="fill:#4D007E;" d="M332.801,512h-34.134c-4.71,0-8.533-3.823-8.533-8.533v-34.134c0-4.71,3.823-8.533,8.533-8.533
		h34.134c4.71,0,8.533,3.823,8.533,8.533v34.134C341.335,508.177,337.512,512,332.801,512z M307.201,494.933h17.067v-17.067h-17.067
		V494.933z"/>
	<path style="fill:#4D007E;" d="M256,443.715c-48.803,0-97.606-2.85-146.068-8.551c-4.301-0.503-7.535-4.147-7.535-8.474V315.73
		c0-4.71,3.823-8.533,8.533-8.533h290.138c4.71,0,8.533,3.823,8.533,8.533v110.961c0,4.326-3.234,7.97-7.535,8.474
		C353.606,440.865,304.803,443.715,256,443.715z M119.464,419.079c90.643,10.104,182.429,10.104,273.071,0v-94.815H119.464V419.079z
		"/>
	<path style="fill:#4D007E;" d="M230.4,477.866h-68.268c-4.71,0-8.533-3.823-8.533-8.533v-37.82c0-2.372,0.99-4.642,2.731-6.255
		c1.741-1.613,4.07-2.449,6.443-2.253c22.639,1.715,45.449,2.825,67.798,3.285c4.642,0.094,8.354,3.891,8.354,8.533v34.509
		C238.933,474.043,235.11,477.866,230.4,477.866z M170.665,460.799h51.201v-17.647c-16.939-0.469-34.091-1.289-51.201-2.466V460.799
		z"/>
	<path style="fill:#4D007E;" d="M349.868,477.866H281.6c-4.71,0-8.533-3.823-8.533-8.533v-34.509c0-4.642,3.712-8.44,8.354-8.533
		c22.341-0.461,45.151-1.57,67.798-3.285c2.406-0.179,4.71,0.64,6.443,2.253c1.741,1.613,2.731,3.883,2.731,6.255v37.82
		C358.402,474.043,354.579,477.866,349.868,477.866z M290.134,460.799h51.201v-20.113c-17.11,1.178-34.262,1.997-51.201,2.466
		V460.799z"/>
</g>
<g>
</g>
<g>
</g>
<g>
</g>
<g>
</g>
<g>
</g>
<g>
</g>
<g>
</g>
<g>
</g>
<g>
</g>
<g>
</g>
<g>
</g>
<g>
</g>
<g>
</g>
<g>
</g>
<g>
</g>
</svg>
