<?xml version="1.0" encoding="iso-8859-1"?>
<!-- Generator: Adobe Illustrator 19.0.0, SVG Export Plug-In . SVG Version: 6.00 Build 0)  -->
<svg version="1.1" id="Capa_1" xmlns="http://www.w3.org/2000/svg" xmlns:xlink="http://www.w3.org/1999/xlink" x="0px" y="0px"
	 viewBox="0 0 512.001 512.001" style="enable-background:new 0 0 512.001 512.001;" xml:space="preserve">
<path style="fill:#EDF2FA;" d="M372.301,10.001v18.756c0,12.42,5.454,24.213,14.917,32.256l70.227,59.689V75.298
	c0-16.741-9.866-31.91-25.17-38.698L372.301,10.001z"/>
<g>
	<path style="fill:#FFCDAC;" d="M455.713,120.702H406.55c-15.756,0-28.529-12.773-28.529-28.529v-40.19L455.713,120.702z"/>
	<path style="fill:#FFCDAC;" d="M390.963,316.048H281.439c-23.459,0-42.476,19.017-42.476,42.476v40.555
		c0,8.787-5.075,16.784-13.026,20.526l-20.974,9.87v18.526"/>
	<path style="fill:#FFCDAC;" d="M170.963,448.001v-18.526l20.974-9.87c7.951-3.742,13.026-11.738,13.026-20.526v-40.555
		c0-23.459,19.017-42.476,42.476-42.476h155.087v49.953H282.963v82H170.963z"/>
	<path style="fill:#FFCDAC;" d="M355.038,316.048V216.027c0-33.151,26.875-60.026,60.026-60.026l0,0
		c33.151,0,60.026,26.875,60.026,60.026v87.411c0,34.553-28.011,62.563-62.563,62.563h-8.563"/>
</g>
<path style="fill:#EDF2FA;" d="M355.038,216.026v100.022h-40.027v49.953h88.952h8.563c34.553,0,62.563-28.011,62.563-62.563v-87.411
	H355.038V216.026z"/>
<path style="fill:#FFCDAC;" d="M475.09,211.667v33.905c0,23.655-13.032,45.386-33.899,56.527l-26.127,13.949h-85.101l80.092-36.008
	c10.367-4.661,17.035-14.97,17.035-26.336v-56.392"/>
<rect x="283.091" y="366.001" style="fill:#FF6E37;" width="192" height="136"/>
<g>
	<rect x="90.961" y="447.091" style="fill:#FF8E4B;" width="192" height="54.906"/>
	<rect x="283.091" y="366.001" style="fill:#FF8E4B;" width="192" height="82"/>
</g>
<path d="M432.626,458.001c2.63,0,5.21-1.07,7.08-2.931c1.86-1.859,2.92-4.439,2.92-7.069s-1.06-5.21-2.92-7.07
	c-1.87-1.86-4.439-2.93-7.08-2.93c-2.63,0-5.21,1.069-7.069,2.93c-1.86,1.86-2.931,4.44-2.931,7.07s1.07,5.21,2.931,7.069
	C427.426,456.93,429.996,458.001,432.626,458.001z"/>
<path d="M51.575,201.028c-6.177-7.755-6.186-18.596-0.021-26.361l8.016-10.099c3.434-4.325,2.71-10.616-1.616-14.05
	c-4.327-3.433-10.616-2.71-14.05,1.616l-8.016,10.099c-11.984,15.1-11.967,36.176,0.044,51.256l7.912,9.933
	c6.177,7.756,6.186,18.597,0.021,26.362c-3.434,4.325-2.71,10.616,1.616,14.05c1.839,1.459,4.032,2.167,6.21,2.167
	c2.946,0,5.865-1.296,7.84-3.783c11.983-15.099,11.967-36.176-0.044-51.256L51.575,201.028z"/>
<path d="M193.844,223.421c6.177,7.756,6.186,18.597,0.021,26.362c-3.434,4.325-2.71,10.616,1.616,14.05
	c1.839,1.459,4.032,2.167,6.21,2.167c2.946,0,5.865-1.296,7.84-3.783c11.983-15.099,11.967-36.176-0.044-51.256l-7.912-9.934
	c-6.177-7.755-6.186-18.596-0.021-26.361l8.016-10.099c3.434-4.325,2.71-10.616-1.616-14.05c-4.327-3.433-10.615-2.71-14.05,1.616
	l-8.016,10.099c-11.984,15.1-11.967,36.176,0.044,51.256L193.844,223.421z"/>
<path d="M118.844,300.609c6.177,7.756,6.186,18.597,0.021,26.362c-3.434,4.325-2.71,10.616,1.616,14.05
	c1.839,1.459,4.032,2.167,6.21,2.167c2.946,0,5.865-1.296,7.84-3.783c11.983-15.099,11.967-36.176-0.044-51.256l-7.912-9.934
	c-6.177-7.755-6.186-18.596-0.021-26.361l8.016-10.099c3.434-4.325,2.71-10.616-1.616-14.05c-4.328-3.434-10.616-2.71-14.05,1.616
	l-8.016,10.099c-11.984,15.1-11.967,36.176,0.044,51.256L118.844,300.609z"/>
<path d="M415.064,146.001c-38.612,0-70.025,31.414-70.025,70.026v82.279l-17.221,7.742H247.44c-28.936,0-52.477,23.54-52.477,52.476
	v40.556c0,4.89-2.858,9.396-7.283,11.478l-20.975,9.87c-3.505,1.649-5.742,5.174-5.742,9.048v8.525h-70c-5.522,0-10,4.478-10,10v54
	c0,5.522,4.478,10,10,10H475.09c5.522,0,10-4.478,10-10v-136c0-5.522-4.478-10-10-10h-12.617
	c13.915-13.229,22.617-31.893,22.617-52.563v-87.41C485.09,177.415,453.676,146.001,415.064,146.001z M415.064,166.001
	c27.585,0,50.026,22.441,50.026,50.026v29.546c0,20.004-10.962,38.283-28.609,47.705l-23.919,12.771h-21.599h-14.37l37.563-16.888
	c13.933-6.264,22.935-20.182,22.935-35.457v-56.392c0-5.522-4.478-10-10-10s-10,4.478-10,10v16.245h-51.99
	C366.393,187.115,388.308,166.001,415.064,166.001z M365.038,233.557h52.052v20.146c0,7.417-4.371,14.175-11.136,17.216
	l-40.916,18.395V233.557z M305.011,326.048v29.953H283.09c-5.522,0-10,4.478-10,10v72h-58.127v-2.18l15.232-7.168
	c11.401-5.364,18.768-16.973,18.768-29.573v-40.556c0-17.907,14.569-32.476,32.477-32.476H305.011z M214.963,399.08v-40.556
	c0-15.165,10.45-27.932,24.525-31.487c-6.604,8.777-10.525,19.682-10.525,31.487v40.556c0,4.89-2.858,9.396-7.283,11.478
	l-11.453,5.39C213.252,410.937,214.963,405.127,214.963,399.08z M180.963,435.821l14.018-6.596
	c-0.002,0.084-0.018,0.166-0.018,0.251v8.525h-14V435.821z M272.963,492.001h-172v-34h172V492.001z M465.09,376.001v116h-172v-34h86
	c5.522,0,10-4.478,10-10s-4.478-10-10-10h-86v-62H465.09z M465.09,303.437c0,28.983-23.58,52.563-52.563,52.563h-8.563h-78.953
	v-29.952h4.952h27h34h24.101c1.643,0,3.261-0.405,4.71-1.179l26.127-13.949c7.284-3.889,13.729-8.885,19.189-14.71L465.09,303.437
	L465.09,303.437z"/>
<path d="M368.022,92.172c0,21.245,17.284,38.529,38.528,38.529c0,0,50.596,0,50.897,0c1.422,0,2.854-0.304,4.195-0.924
	c3.538-1.636,5.803-5.179,5.803-9.076V75.298c0-20.677-12.214-39.455-31.115-47.84l-59.974-26.6
	c-3.095-1.371-6.671-1.085-9.507,0.759c-2.837,1.845-4.548,4.999-4.548,8.383v18.756c0,8.38,2.009,16.501,5.72,23.775
	L368.022,92.172L368.022,92.172z M388.022,92.172V74.818l42.218,35.883h-23.689C396.333,110.702,388.022,102.389,388.022,92.172z
	 M382.302,25.376l45.919,20.366c11.679,5.18,19.225,16.781,19.225,29.557v23.779l-53.751-45.686
	c-7.24-6.153-11.393-15.133-11.393-24.636V25.376z"/>
<g>
</g>
<g>
</g>
<g>
</g>
<g>
</g>
<g>
</g>
<g>
</g>
<g>
</g>
<g>
</g>
<g>
</g>
<g>
</g>
<g>
</g>
<g>
</g>
<g>
</g>
<g>
</g>
<g>
</g>
</svg>
