<?xml version="1.0" encoding="iso-8859-1"?>
<!-- Generator: Adobe Illustrator 19.0.0, SVG Export Plug-In . SVG Version: 6.00 Build 0)  -->
<svg version="1.1" id="Capa_1" xmlns="http://www.w3.org/2000/svg" xmlns:xlink="http://www.w3.org/1999/xlink" x="0px" y="0px"
	 viewBox="0 0 512 512" style="enable-background:new 0 0 512 512;" xml:space="preserve">
<path style="fill:#E2EEFD;" d="M165.747,349.255c-6.724-27.367-31.301-47.666-60.605-47.666c-29.305,0-53.883,20.299-60.607,47.666
	L165.747,349.255L165.747,349.255z"/>
<path style="opacity:0.1;fill:#1B002D;enable-background:new    ;" d="M120.835,303.594c-5.015-1.306-10.272-2.004-15.693-2.004
	c-29.305,0-53.883,20.299-60.607,47.666H75.92C81.4,326.951,98.742,309.345,120.835,303.594z"/>
<path style="fill:#D7F7FF;" d="M423.137,349.255c-4.988-20.297-23.217-35.353-44.95-35.353c-21.735,0-39.964,15.056-44.949,35.353
	H423.137z"/>
<path style="fill:#E2EEFD;" d="M487.709,349.255c-5.297-21.561-24.658-37.553-47.748-37.553c-23.088,0-42.452,15.992-47.748,37.553
	H487.709z"/>
<path style="fill:#D7F7FF;" d="M219.38,339.189c-0.537-1.117-1.11-2.212-1.722-3.283c-12.505-5.041-23.229-13.525-30.977-24.258
	c-4.437-1.245-9.11-1.921-13.942-1.921c-24.301,0-44.685,16.833-50.261,39.529h68.829
	C199.28,344.255,208.838,340.919,219.38,339.189z"/>
<path style="opacity:0.1;fill:#1B002D;enable-background:new    ;" d="M186.68,311.646c-4.436-1.245-9.109-1.919-13.941-1.919
	c-24.301,0-44.685,16.833-50.261,39.529h31.133c4.244-17.274,17.077-31.124,33.674-36.768
	C187.079,312.21,186.882,311.926,186.68,311.646z"/>
<path style="fill:#E2EEFD;" d="M297.185,349.255h69.411c-5.576-22.696-25.96-39.529-50.261-39.529
	c-5.099,0-10.021,0.749-14.674,2.13c-7.583,10.425-17.975,18.718-30.084,23.76c-0.689,1.189-1.328,2.412-1.925,3.66
	C279.982,341.031,289.349,344.34,297.185,349.255z"/>
<g>
	<path style="fill:#B3CCE2;" d="M208.169,341.755H7.5c-4.142,0-7.5,3.357-7.5,7.5s3.358,7.5,7.5,7.5h174.328
		C188.733,349.839,197.766,344.871,208.169,341.755z"/>
	<path style="fill:#B3CCE2;" d="M504.5,341.755H280.321c10.404,3.116,19.438,8.083,26.344,15H504.5c4.143,0,7.5-3.357,7.5-7.5
		C512,345.113,508.643,341.755,504.5,341.755z"/>
</g>
<g>
	<path style="fill:#FFD5B3;" d="M173.54,234.886c-2.711-1.407-5.783-2.216-9.049-2.216c-10.869,0-19.68,8.813-19.68,19.68
		c0,10.87,8.811,19.682,19.68,19.682c3.266,0,6.338-0.808,9.049-2.216V234.886z"/>
	<path style="fill:#FFD5B3;" d="M324.002,232.67c-3.247,0-6.303,0.801-9.002,2.193v34.975c2.699,1.393,5.755,2.193,9.002,2.193
		c10.867,0,19.679-8.811,19.679-19.682C343.681,241.482,334.869,232.67,324.002,232.67z"/>
	<path style="fill:#FFD5B3;" d="M244.246,453.751c30.685,0,56.991-2.477,76.927-6.136v-53.184c0-34.511-24.911-52.481-57.726-56.016
		c-6.11,1.708-12.544,2.643-19.199,2.643s-13.09-0.935-19.2-2.644c-32.816,3.534-57.728,21.505-57.728,56.017v53.182
		C188.957,451.578,215.975,453.751,244.246,453.751z"/>
</g>
<path style="opacity:0.1;fill:#1B002D;enable-background:new    ;" d="M188.147,450.689v-56.258
	c0-30.309,19.211-47.862,46.117-54.084c-3.144-0.441-6.219-1.094-9.217-1.933c-32.816,3.534-57.728,21.505-57.728,56.017v53.182
	C173.816,448.803,180.791,449.833,188.147,450.689z"/>
<g>
	<path style="fill:#FFB98A;" d="M219.956,336.803v20.689c0,4.143,3.358,7.5,7.5,7.5s7.5-3.357,7.5-7.5v-17.057
		C229.761,339.757,224.735,338.539,219.956,336.803z"/>
	<path style="fill:#FFB98A;" d="M253.537,340.435v17.057c0,4.143,3.358,7.5,7.5,7.5c4.143,0,7.5-3.357,7.5-7.5v-20.688
		C263.758,338.539,258.732,339.758,253.537,340.435z"/>
</g>
<path style="fill:#A2E8F9;" d="M244.246,468.751c-33.671,0-65.405-2.965-89.357-8.35c-28.388-6.382-42.187-15.225-42.187-27.036
	c0-4.143,3.358-7.5,7.5-7.5c4.082,0,7.403,3.262,7.498,7.321c0.831,1.877,8.561,8.041,33.779,13.294
	c22.503,4.688,51.898,7.271,82.767,7.271c59.618,0,102.777-9.339,114.599-18.565c3.265-2.547,7.979-1.968,10.526,1.298
	c2.549,3.266,1.968,7.978-1.298,10.526C351.412,460.014,301.649,468.751,244.246,468.751z"/>
<path style="fill:#FFB98A;" d="M306.036,449.987v-35.408c0-4.143-3.357-7.5-7.5-7.5s-7.5,3.357-7.5,7.5v37.096
	C296.282,451.184,301.283,450.617,306.036,449.987z"/>
<path style="fill:#A2E8F9;" d="M244.246,507.151c-48.81,0-94.803-6.331-129.507-17.827c-37.818-12.527-57.808-29.553-57.808-49.236
	c0-4.143,3.358-7.5,7.5-7.5s7.5,3.357,7.5,7.5c0,12.057,17.766,25.14,47.525,34.998c33.223,11.005,77.54,17.065,124.79,17.065
	s91.568-6.061,124.791-17.065c29.759-9.858,47.525-22.941,47.525-34.998c0-13.067-21.157-27.396-55.214-37.394
	c-3.975-1.167-6.251-5.334-5.084-9.309c1.167-3.975,5.333-6.251,9.309-5.084c42.554,12.492,65.989,30.884,65.989,51.786
	c0,19.684-19.99,36.709-57.809,49.236C339.05,500.82,293.057,507.151,244.246,507.151z"/>
<path style="fill:#FFB98A;" d="M291.939,228.708c-0.062,0-0.122-0.034-0.152-0.088l-13.881-24.038c-0.894-1.547-2.544-2.5-4.33-2.5
	c-1.786,0-3.437,0.953-4.33,2.5l-13.878,24.035c-0.033,0.057-0.092,0.091-0.155,0.091h-84.696v42.333
	c0,40.327,33.009,73.017,73.731,73.017c40.719,0,73.729-32.69,73.729-73.017v-42.333H291.939z"/>
<path style="opacity:0.1;fill:#1B002D;enable-background:new    ;" d="M191,271.042v-42.333h-20.483v42.333
	c0,40.327,33.009,73.017,73.731,73.017c3.477,0,6.892-0.256,10.241-0.717C218.618,338.402,191,307.926,191,271.042z"/>
<g>
	<path style="fill:#D16605;" d="M244.248,320.962c-14.774,0-26.794-11.937-26.794-26.607c0-4.143,3.358-7.5,7.5-7.5
		s7.5,3.357,7.5,7.5c0,6.4,5.291,11.607,11.794,11.607c6.502,0,11.792-5.207,11.792-11.607c0-4.143,3.357-7.5,7.5-7.5
		s7.5,3.357,7.5,7.5C271.04,309.026,259.021,320.962,244.248,320.962z"/>
	<path style="fill:#D16605;" d="M249.574,284.893h-4.104c-5.789,0-10.5-4.71-10.5-10.5v-9.316c0-4.143,3.358-7.5,7.5-7.5
		s7.5,3.357,7.5,7.5v4.827c3.958,0.206,7.104,3.48,7.104,7.489C257.074,281.535,253.716,284.893,249.574,284.893z"/>
</g>
<g>
	<path style="fill:#A53C29;" d="M208.764,273.333c-5.899,0-11.799-2.245-16.29-6.736c-2.929-2.929-2.93-7.678-0.001-10.606
		c2.929-2.93,7.678-2.931,10.606-0.001c3.134,3.135,8.233,3.135,11.368,0c2.929-2.928,7.678-2.928,10.606,0
		c2.929,2.93,2.929,7.678,0,10.607C220.562,271.087,214.663,273.333,208.764,273.333z"/>
	<path style="fill:#A53C29;" d="M278.381,273.331c-5.9,0-11.798-2.244-16.289-6.734c-2.929-2.928-2.93-7.677-0.001-10.606
		c2.927-2.929,7.676-2.932,10.606-0.001c3.133,3.133,8.234,3.133,11.367,0c2.931-2.929,7.68-2.928,10.606,0.001
		c2.929,2.93,2.928,7.679-0.001,10.606C290.179,271.087,284.28,273.331,278.381,273.331z"/>
</g>
<path style="fill:#3A5792;" d="M277.784,128.785h-67.076c-31.44,13.035-53.586,43.817-53.586,79.63v20.112
	c0,2.861,2.319,5.181,5.179,5.181h92.912c1.851,0,3.561-0.988,4.485-2.591l13.878-24.035l13.879,24.035
	c0.924,1.603,2.635,2.591,4.484,2.591h34.253c2.86,0,5.179-2.319,5.179-5.181v-20.112
	C331.371,172.603,309.225,141.82,277.784,128.785z"/>
<path style="opacity:0.1;fill:#1B002D;enable-background:new    ;" d="M242.364,128.785h-31.656
	c-31.44,13.035-53.586,43.817-53.586,79.63v20.112c0,2.861,2.319,5.181,5.179,5.181h31.628c-2.86,0-5.179-2.319-5.179-5.181v-20.112
	C188.75,172.594,210.911,141.814,242.364,128.785z"/>
<g>
	<path style="fill:#FFB98A;" d="M214.02,435.509c-1.97,0-3.9-0.8-5.3-2.2c-1.4-1.39-2.2-3.33-2.2-5.3s0.8-3.9,2.2-5.3
		c1.39-1.4,3.33-2.2,5.3-2.2c1.98,0,3.91,0.8,5.31,2.2c1.39,1.399,2.19,3.33,2.19,5.3c0,1.98-0.8,3.91-2.19,5.3
		C217.93,434.708,216,435.509,214.02,435.509z"/>
	<path style="fill:#FFB98A;" d="M274.47,435.509c-1.979,0-3.91-0.8-5.3-2.2c-1.4-1.39-2.2-3.319-2.2-5.3c0-1.97,0.8-3.9,2.2-5.3
		c1.39-1.4,3.32-2.2,5.3-2.2c1.97,0,3.91,0.8,5.3,2.2c1.4,1.399,2.2,3.33,2.2,5.3c0,1.98-0.8,3.91-2.2,5.3
		C278.38,434.708,276.439,435.509,274.47,435.509z"/>
</g>
<path style="fill:#E2EEFD;" d="M295.737,118.114c0,7.617-6.175,13.791-13.792,13.791h-75.397c-7.617,0-13.792-6.174-13.792-13.791
	v-11.953c0-7.619,6.175-13.793,13.792-13.793h75.397c7.617,0,13.792,6.174,13.792,13.793V118.114z"/>
<path style="opacity:0.1;fill:#1B002D;enable-background:new    ;" d="M213.019,118.114v-11.953c0-7.619,6.175-13.793,13.792-13.793
	h-20.263c-7.617,0-13.792,6.174-13.792,13.793v11.953c0,7.617,6.175,13.791,13.792,13.791h20.263
	C219.193,131.905,213.019,125.731,213.019,118.114z"/>
<path style="fill:#B3CCE2;" d="M295.648,104.636h-55.879c-4.142,0-7.5,3.357-7.5,7.5s3.358,7.5,7.5,7.5h55.88
	c0.055-0.5,0.088-1.007,0.088-1.521v-11.953C295.737,105.645,295.704,105.137,295.648,104.636z"/>
<path style="fill:#FFC554;" d="M116.636,161.321H74.227c-4.142,0-7.5,3.357-7.5,7.5s3.358,7.5,7.5,7.5h42.409
	c5.758,0,10.442,4.775,10.442,10.643c0,5.867-4.685,10.641-10.442,10.641h-14.679c-4.142,0-7.5,3.357-7.5,7.5s3.358,7.5,7.5,7.5
	h14.679c14.029,0,25.442-11.502,25.442-25.641C142.079,172.824,130.665,161.321,116.636,161.321z"/>
<g>
	<path style="fill:#FCE591;" d="M91.353,233.061H61.996c-5.758,0-10.442-4.773-10.442-10.641c0-5.867,4.684-10.64,10.442-10.64
		h10.085c4.142,0,7.5-3.357,7.5-7.5s-3.358-7.5-7.5-7.5H61.996c-14.029,0-25.442,11.502-25.442,25.64
		c0,14.139,11.413,25.641,25.442,25.641h29.357c0.261,0,0.656,0.371,0.656,0.93v18.258c0,4.143,3.358,7.5,7.5,7.5s7.5-3.357,7.5-7.5
		v-18.258C107.009,240.207,99.986,233.061,91.353,233.061z"/>
	<path style="fill:#FCE591;" d="M440.233,184.292h-42.409c-5.757,0-10.44-4.773-10.44-10.641c0-5.868,4.684-10.643,10.44-10.643
		h35.036c4.142,0,7.5-3.357,7.5-7.5s-3.358-7.5-7.5-7.5h-35.036c-14.028,0-25.44,11.503-25.44,25.643
		c0,14.139,11.412,25.641,25.44,25.641h42.409c5.758,0,10.442,4.775,10.442,10.643c0,5.867-4.685,10.641-10.442,10.641h-14.679
		c-4.143,0-7.5,3.357-7.5,7.5s3.357,7.5,7.5,7.5h14.679c14.029,0,25.442-11.502,25.442-25.641
		C465.676,195.795,454.263,184.292,440.233,184.292z"/>
</g>
<path style="fill:#FFC554;" d="M414.95,256.031h-29.356c-5.759,0-10.443-4.773-10.443-10.641c0-5.867,4.685-10.64,10.443-10.64
	h10.084c4.143,0,7.5-3.357,7.5-7.5s-3.357-7.5-7.5-7.5h-10.084c-14.029,0-25.443,11.502-25.443,25.64
	c0,14.139,11.414,25.641,25.443,25.641h29.356c0.262,0,0.656,0.371,0.656,0.93v12.064c0,4.143,3.357,7.5,7.5,7.5s7.5-3.357,7.5-7.5
	v-12.064C430.606,263.178,423.583,256.031,414.95,256.031z"/>
<g>
	<circle style="fill:#A2E8F9;" cx="143.7" cy="20.939" r="16.09"/>
	<ellipse style="fill:#A2E8F9;" cx="453.15" cy="52.028" rx="16.09" ry="16.09"/>
	<circle style="fill:#A2E8F9;" cx="347.08" cy="72.148" r="16.09"/>
	<circle style="fill:#A2E8F9;" cx="52.99" cy="78.729" r="16.09"/>
</g>
<path style="fill:#FFB98A;" d="M197.457,451.66v-37.082c0-4.143-3.358-7.5-7.5-7.5s-7.5,3.357-7.5,7.5v35.402
	C187.286,450.618,192.296,451.18,197.457,451.66z"/>
<g>
</g>
<g>
</g>
<g>
</g>
<g>
</g>
<g>
</g>
<g>
</g>
<g>
</g>
<g>
</g>
<g>
</g>
<g>
</g>
<g>
</g>
<g>
</g>
<g>
</g>
<g>
</g>
<g>
</g>
</svg>
